<svg width="362" height="377" viewBox="0 0 362 377" fill="none" xmlns="http://www.w3.org/2000/svg">
<g opacity="0.7">
<path d="M29.2397 104.859C29.2397 104.859 26.743 95.4633 26.5708 90.9848C26.3987 86.5063 28.0344 79.7102 25.3655 76.6411C22.6966 73.5719 19.8842 63.6753 18.3345 64.7088C16.7848 65.7423 19.5972 76.2966 18.3345 76.4845C17.0717 76.6411 9.83984 72.5697 8.49103 71.0977C7.17091 69.6258 2.46441 56.9419 1.23039 58.0693C-0.0323266 59.1968 -0.749779 70.0955 1.23039 76.6724C2.43571 80.6811 11.0165 90.0766 12.6809 92.2376C14.3454 94.3985 16.2108 104.42 16.2108 104.42L29.2397 104.859Z" fill="#FC9490"/>
<path d="M119.61 372.755H263.216L152.47 117.918L124.661 207.958L111.661 292.643L119.61 372.755Z" fill="#47080B"/>
<path d="M231.762 127.377L208.775 120.863L186.448 112.219C186.448 112.219 161.767 116.04 152.526 117.919C142.453 119.954 129.137 118.67 118.347 129.976C107.556 141.251 101.042 135.895 54.0345 148.83C48.0653 150.49 35.7538 98.2195 35.7538 98.2195L21.6917 101.32C21.6917 101.32 25.6808 168.278 29.3254 175.951C32.9414 183.624 120.643 184.125 120.643 186.694C120.643 189.262 146.902 371.503 146.902 371.503H273.661L231.762 127.377Z" fill="white"/>
<path d="M169.746 132.231C180.823 135.801 197.612 134.893 210.497 127.408C206.25 112.563 204.958 101.069 204.786 93.7095C204.786 93.3024 204.757 92.9265 204.757 92.582C204.729 88.7612 204.987 86.1931 205.245 85.0343L176.088 82.0904C176.088 82.0904 167.766 85.2536 167.536 88.0096C167.421 89.4815 167.278 90.8909 167.134 92.2375C166.761 95.9018 166.359 99.0649 165.958 101.79C164.637 110.653 163.346 114.787 163.346 114.787C163.346 114.787 158.553 128.629 169.746 132.231Z" fill="#FC9490"/>
<path d="M165.957 101.727C187.652 108.617 201.6 96.7474 204.757 93.6782C205.216 93.2397 205.445 92.9579 205.445 92.9579C205.216 92.8013 204.986 92.676 204.728 92.5194C196.807 88.0409 177.895 89.0431 167.133 92.1436C166.76 95.8391 166.358 99.0023 165.957 101.727Z" fill="#F48484"/>
<path d="M214.083 83.813C204.24 104.921 178.01 95.6826 166.99 90.609C163.89 89.1684 161.996 88.0723 161.996 88.0723C158.667 85.8487 158.323 78.9587 159.585 70.5027C162.082 53.7788 170.864 30.8225 174.996 25.5923C181.224 17.7001 190.981 10.1211 215.633 25.8116C240.313 41.502 226.71 56.7853 214.083 83.813Z" fill="#FC9490"/>
<path d="M179.531 6.36287C189.547 0.130535 197.926 -0.464512 203.924 0.22449C221.66 2.22886 234.344 13.7227 234.43 13.8166C253.342 31.2296 254.089 51.2106 234.918 75.7641C214.657 101.727 203.953 94.6177 203.953 94.6177C203.953 94.6177 206.88 93.7408 209.176 84.3453C209.32 83.8129 209.406 83.3745 209.492 82.9673C209.894 81.0256 211.041 79.3031 212.677 78.4575C216.092 76.7037 219.565 69.1873 217.9 66.2434C215.891 62.7044 211.185 64.7088 209.291 66.8071C207.741 68.2164 205.675 68.2164 204.211 66.4313C198.701 59.5726 205.617 51.6804 200.71 43.8821C195.803 36.0839 161.451 34.9564 161.451 13.7853C161.451 13.754 170.233 12.1567 179.531 6.36287Z" fill="#474747"/>
<path d="M192.33 48.3293C187.824 44.8217 182.027 46.2623 179.33 51.5864C176.661 56.9105 178.124 64.0511 182.601 67.5901C187.107 71.0977 192.904 69.6571 195.602 64.333C198.299 58.9775 196.836 51.837 192.33 48.3293Z" fill="white"/>
<path d="M173.964 41.6586C171.984 37.1801 167.335 35.8647 163.575 38.746C159.816 41.6273 158.352 47.609 160.332 52.1189C162.312 56.5974 166.961 57.9128 170.721 55.0315C174.452 52.1502 175.915 46.1371 173.964 41.6586Z" fill="white"/>
<path d="M180.564 53.2149C180.679 53.2149 180.794 53.1836 180.88 53.121C181.138 52.933 181.224 52.5572 181.052 52.2754C180.937 52.0875 178.24 47.7342 173.849 47.3271C173.533 47.2958 173.275 47.5463 173.246 47.8908C173.217 48.2353 173.447 48.5172 173.763 48.5485C177.608 48.893 180.076 52.9017 180.105 52.933C180.191 53.121 180.363 53.2149 180.564 53.2149Z" fill="#293EB7"/>
<path d="M162.972 116.039C162.972 116.039 124.315 201.851 119.638 264.394C114.96 326.937 119.638 372.755 119.638 372.755C119.638 372.755 89.6193 282.903 104.628 203.073C104.628 203.073 107.67 192.08 102.476 191.172C97.253 190.264 33.2849 190.702 26.8278 182.747C20.3707 174.792 8.54712 110.527 8.54712 110.527C8.54712 110.527 13.971 95.338 35.6955 98.2193C35.6955 98.2193 52.6561 145.667 54.952 145.886C57.2478 146.105 106.006 132.45 111.43 128.16C116.825 123.838 129.624 115.82 162.972 116.039Z" fill="#D0BD14"/>
<path d="M200.337 227.971C200.452 237.21 200.768 246.887 201.37 256.878C203.494 292.017 208.975 331.321 220.426 371.502H338.146C338.146 371.502 323.567 332.824 305.946 290.764C302.847 283.404 299.69 275.919 296.476 268.559C283.447 238.619 269.93 210.119 260.029 195.713C233.77 157.505 208.746 120.862 208.746 120.862C208.746 120.862 199.534 164.708 200.337 227.971Z" fill="#D0BD14"/>
<path d="M232.624 285.972C232.624 285.972 256.788 296.433 305.919 290.764C302.82 283.404 299.663 275.919 296.449 268.559L232.624 285.972Z" fill="#47080B"/>
<path d="M200.338 227.971C200.453 237.21 200.769 246.887 201.372 256.877C217.213 255.938 273.863 252.524 273.576 251.647C273.26 250.614 268.324 227.094 268.324 227.094C268.324 227.094 220.714 239.715 200.396 227.094L200.338 227.971Z" fill="#47080B"/>
<path d="M222.52 255.75C222.52 255.75 205.645 244.82 197.81 245.321C190.005 245.854 177.492 248.578 175.627 255.75C173.761 262.922 178.439 259.414 188.914 261.638C195.084 262.953 198.872 272.631 206.879 273.476C210.007 273.821 222.52 271.096 222.52 271.096V255.75Z" fill="#FC9490"/>
<path d="M208.745 120.894C208.745 120.894 251.964 126.468 263.214 138.056C282.241 157.661 332.319 231.854 327.354 264.394C324.082 285.972 232.622 285.972 232.622 285.972C232.622 285.972 221.343 277.986 217.182 270.752C208.745 256.095 211.672 245.321 211.672 245.321L268.236 224.338C268.236 224.338 240.657 195.149 219.392 193.646C203.837 192.55 208.745 120.894 208.745 120.894Z" fill="#D0BD14"/>
</g>
<rect x="81" y="364" width="281" height="13" rx="6.5" fill="#1C170D"/>
</svg>
